<?xml version="1.0" encoding="utf-8"?><svg xmlns:xlink="http://www.w3.org/1999/xlink" id="Scene_1" image-rendering="auto" baseProfile="basic" version="1.1" x="0px" y="0px" width="25" height="25" viewBox="0 0 25 25" xmlns="http://www.w3.org/2000/svg"><g id="Scene 1_0.0"><path fill="#FD3D39" d="M21.05,17.95L21.05,15.95 7,15.95 7,17.95 21.05,17.95"/><path fill="#FD3D39" d="M2,17.95L5,17.95 5,15.95 2,15.95 2,17.95"/><path fill="#FD3D39" d="M21.05,12.95L21.05,10.95 7,10.95 7,12.95 21.05,12.95"/><path fill="#FD3D39" d="M5,10.95L2,10.95 2,12.95 5,12.95 5,10.95"/><path fill="#FD3D39" d="M21.05,7.95L21.05,5.95 7,5.95 7,7.95 21.05,7.95"/><path fill="#FD3D39" d="M5,5.95L2,5.95 2,7.95 5,7.95 5,5.95"/></g><defs/></svg>