<?xml version="1.0" encoding="utf-8"?><svg xmlns:xlink="http://www.w3.org/1999/xlink" id="Scene_1" image-rendering="auto" baseProfile="basic" version="1.1" x="0px" y="0px" width="20" height="20" viewBox="0 0 20 20" xmlns="http://www.w3.org/2000/svg"><g id="Scene 1_1.0"><path fill="#464646" d="M17.35,9.25Q17.05,8.9 16.6,8.9L5.75,8.9 8.95,5.7Q9.3,5.35 9.3,4.9 9.3,4.45 8.95,4.1 8.8,3.9 8.6,3.85 8.4,3.8 8.2,3.8 7.95,3.8 7.75,3.85 7.5,3.9 7.4,4.1L2.25,9.25Q1.9,9.5 1.9,10 1.9,10.45 2.25,10.8L7.4,15.9Q7.7,16.2 8.2,16.2 8.6,16.2 8.95,15.9 9.3,15.6 9.3,15.15 9.3,14.65 8.95,14.3L5.75,11.15 16.6,11.15Q17.05,11.15 17.35,10.8 17.7,10.45 17.7,10 17.7,9.5 17.35,9.25"/></g><defs/></svg>