<?xml version="1.0" encoding="utf-8"?><svg xmlns:xlink="http://www.w3.org/1999/xlink" id="Scene_1" image-rendering="auto" baseProfile="basic" version="1.1" x="0px" y="0px" width="20" height="20" viewBox="0 0 20 20" xmlns="http://www.w3.org/2000/svg"><g id="Scene 1_0.0"><path fill="#FD3D39" d="M11.05,4.1Q10.7,4.45 10.7,4.9 10.7,5.35 11.05,5.7L14.25,8.9 3.4,8.9Q2.95,8.9 2.65,9.25 2.3,9.5 2.3,10 2.3,10.45 2.65,10.8 2.95,11.15 3.4,11.15L14.25,11.15 11.05,14.3Q10.7,14.65 10.7,15.15 10.7,15.6 11.05,15.9 11.4,16.2 11.8,16.2 12.3,16.2 12.6,15.9L17.75,10.8Q18.1,10.45 18.1,10 18.1,9.5 17.75,9.25L12.6,4.1Q12.5,3.9 12.25,3.85 12.05,3.8 11.8,3.8 11.6,3.8 11.4,3.85 11.2,3.9 11.05,4.1"/></g><defs/></svg>