<?xml version="1.0" encoding="utf-8"?><svg xmlns:xlink="http://www.w3.org/1999/xlink" id="Scene_1" image-rendering="auto" baseProfile="basic" version="1.1" x="0px" y="0px" width="20" height="20" viewBox="0 0 20 20" xmlns="http://www.w3.org/2000/svg"><g id="Scene 1_0.0"><path fill="#FFF" d="M14.95,10.5Q14.5,10.5 14.2,10.85L11.05,13.95 11.05,3.45Q11.05,3 10.8,2.6 10.4,2.35 10,2.35 9.6,2.35 9.2,2.6 8.9,3 8.9,3.45L8.9,13.95 5.8,10.85Q5.5,10.5 5.05,10.5 4.6,10.5 4.3,10.85 4.2,11 4.05,11.2 3.95,11.4 3.95,11.6 3.95,11.8 4.05,12.05 4.2,12.25 4.3,12.4L9.2,17.4Q9.6,17.65 10,17.65 10.4,17.65 10.8,17.4L15.75,12.4Q16.05,12.1 16.05,11.6 16.05,11.15 15.75,10.85 15.4,10.5 14.95,10.5"/></g><defs/></svg>