<?xml version="1.0" encoding="utf-8"?><svg xmlns:xlink="http://www.w3.org/1999/xlink" id="Scene_1" image-rendering="auto" baseProfile="basic" version="1.1" x="0px" y="0px" width="280" height="280" viewBox="0 0 280 280" xmlns="http://www.w3.org/2000/svg"><g><use xlink:href="#grey-circle" width="370" height="370" x="-185" y="-185" overflow="visible" transform="matrix(1 0 0 1 139.95 140)"/><animate attributeName="display" begin="indefinite" repeatCount="1" dur="2.28s" keyTimes="0;0.193;1" values="none;inline;none"/></g><g style="display:none;"><use xlink:href="#grey-circle" width="370" height="370" x="-185" y="-185" overflow="visible" transform="matrix(1 0 0 1 139.95 140)" opacity="0"><animateTransform attributeName="transform" additive="replace" type="translate" begin="indefinite" dur="2.28s" keyTimes="0;0.018;0.026;0.035;0.044;0.053;0.061;0.07;0.079;0.088;0.096;0.105;0.114;0.123;0.132;0.14;0.149;0.158;0.2017543859649123;1" values="139.95,140;139.95,140;140,140.05;139.95,140;140,140.05;139.95,140;140,140.05;139.95,140;139.95,140;140,140.05;139.95,140;139.95,140;140,140.05;139.95,140;139.95,140;139.95,140.05;140,140.05;139.95,140;139.95,140;139.95,140" calcMode="discrete"/><animateTransform attributeName="transform" additive="sum" type="scale" begin="indefinite" dur="2.28s" keyTimes="0;0.018;0.026;0.035;0.044;0.053;0.061;0.07;0.079;0.088;0.096;0.105;0.114;0.123;0.132;0.14;0.149;0.158;0.167;0.175;0.184;0.193;0.2017543859649123;1" values="0.95,0.95;0.95,0.95;0.951,0.951;0.952,0.952;0.954,0.954;0.955,0.955;0.958,0.958;0.96,0.96;0.963,0.963;0.966,0.966;0.97,0.97;0.974,0.974;0.978,0.978;0.982,0.982;0.987,0.987;0.992,0.992;0.998,0.998;1.004,1.004;1.01,1.01;1.004,1.004;1.001,1.001;1,1;1,1;1,1" calcMode="discrete"/><animate attributeName="opacity" begin="indefinite" dur="2.28s" keyTimes="0;0.018;0.026;0.035;0.044;0.053;0.061;0.07;0.079;0.088;0.096;0.105;0.114;0.123;0.132;0.14;0.149;0.158;0.167;0.2017543859649123;1" values="0;0;0.02;0.04;0.06;0.09;0.13;0.17;0.22;0.27;0.33;0.39;0.46;0.54;0.62;0.71;0.8;0.9;1;1;1" calcMode="discrete"/></use><animate attributeName="display" begin="indefinite" repeatCount="1" dur="2.28s" keyTimes="0;0.018;0.202;1" values="none;inline;none;none"/></g><g mask="url(#Scene_1_7_23)" id="Scene 1_8.23"><path fill="#FD3D39" d="M140,14.45L140,5.15Q84.1,5.15 44.6,44.65 5.1,84.15 5.1,140 5.1,195.9 44.6,235.4 84.1,274.9 140,274.9L140,265.6Q87.95,265.6 51.2,228.85 14.4,192.05 14.4,140 14.4,88 51.2,51.2 87.95,14.45 140,14.45"/><animate attributeName="display" begin="indefinite" repeatCount="1" dur="2.28s" keyTimes="0;0.202;1" values="none;inline;none"/></g><mask id="Scene_1_7_23"><g id="mask-3" transform="matrix(1 0 0 1 140 140)"><animateTransform attributeName="transform" additive="replace" type="translate" begin="indefinite" dur="2.28s" keyTimes="0;0.202;1" values="140,140;140,140;140,140" calcMode="discrete"/><animateTransform attributeName="transform" additive="sum" type="rotate" begin="indefinite" dur="2.28s" keyTimes="0;0.202;0.211;0.219;0.228;0.237;0.246;0.254;0.263;0.272;0.281;0.289;0.298;0.307;0.316;0.325;0.333;0.342;0.351;0.36;0.368;0.377;0.386;0.395;0.404;0.412;0.421;0.43;0.439;0.447;0.456;0.465;0.474;0.482;0.491;0.5;0.509;0.518;0.526;0.535;0.544;0.553;0.561;0.57;0.579;1" values="180,0,0;180,0,0;175.952,0,0;171.716,0,0;167.477,0,0;163.424,0,0;159.181,0,0;154.937,0,0;150.691,0,0;146.634,0,0;142.387,0,0;138.138,0,0;133.891,0,0;129.832,0,0;125.584,0,0;121.337,0,0;117.091,0,0;113.035,0,0;108.791,0,0;104.549,0,0;100.309,0,0;96.259,0,0;92.024,0,0;87.976,0,0;83.741,0,0;79.691,0,0;75.451,0,0;71.209,0,0;66.965,0,0;62.909,0,0;58.663,0,0;54.416,0,0;50.168,0,0;46.109,0,0;41.862,0,0;37.613,0,0;33.366,0,0;29.309,0,0;25.063,0,0;20.819,0,0;16.576,0,0;12.523,0,0;8.284,0,0;4.048,0,0;0,0,0;0,0,0" calcMode="discrete"/><animateTransform attributeName="transform" additive="sum" type="scale" begin="indefinite" dur="2.28s" keyTimes="0;0.202;0.211;0.219;0.228;0.237;0.246;0.254;0.333;0.342;0.36;0.368;0.377;0.386;0.395;0.404;0.412;0.421;0.439;0.447;0.526;0.535;0.544;0.553;0.561;0.57;1" values="1,1;1,1;1,1;0.999,0.999;0.999,0.999;0.998,0.998;0.998,0.998;0.997,0.997;0.997,0.997;0.998,0.998;0.998,0.998;0.999,0.999;0.999,0.999;1,1;1,1;0.999,0.999;0.999,0.999;0.998,0.998;0.998,0.998;0.997,0.997;0.997,0.997;0.998,0.998;0.998,0.998;0.999,0.999;0.999,0.999;1,1;1,1" calcMode="discrete"/><path fill="#FFF" d="M0,-108L0,-162Q-67.1,-162 -114.6,-114.6 -162,-67.1 -162,0 -162,67.15 -114.6,114.55 -67.1,162 0,162L0,108Q-44.75,108 -76.4,76.35 -108,44.75 -108,0 -108,-44.75 -76.4,-76.4 -44.75,-108 0,-108" fill-opacity="1"/></g><animate attributeName="display" begin="indefinite" repeatCount="1" dur="2.28s" keyTimes="0;0.202;1" values="none;inline;none"/></mask><g mask="url(#Scene_1_5_66)" id="Scene 1_6.66"><path fill="#FD3D39" d="M274.85,140Q274.85,84.15 235.35,44.65 198.9,8.2 148.55,5.4 146.45,5.25 144.4,5.2 142.2,5.15 140,5.15L140,14.45Q142.05,14.45 144.1,14.5 146,14.55 147.95,14.7 194.85,17.3 228.8,51.2 265.55,88 265.55,140 265.55,192.05 228.8,228.85 192,265.6 140,265.6L140,274.9Q195.85,274.9 235.35,235.4 274.85,195.9 274.85,140"/><animate attributeName="display" begin="indefinite" repeatCount="1" dur="2.28s" keyTimes="0;0.579;1" values="none;inline;none"/></g><mask id="Scene_1_5_66" opacity="9999999999999.99"><g id="mask-2" transform="matrix(0.505 0.861 -0.861 0.505 140 140)"><animateTransform attributeName="transform" additive="replace" type="translate" begin="indefinite" dur="2.28s" keyTimes="0;0.579;0.596;0.605;0.614;0.623;0.64;0.649;0.658;0.667;0.693;0.702;0.711;0.719;0.728;0.737;0.746;0.754;0.763;1" values="140,140;140,140;140,140;140.05,139.95;140.05,140.05;140,140;140,140;140.1,140;140.05,140.05;140,140;140,140;140.05,139.95;140,140;140,140;139.95,140.05;140.05,139.95;140,140;139.95,139.95;140,140;140,140" calcMode="discrete"/><animateTransform attributeName="transform" additive="sum" type="rotate" begin="indefinite" dur="2.28s" keyTimes="0;0.579;0.588;0.596;0.605;0.614;0.623;0.632;0.64;0.649;0.658;0.667;0.675;0.684;0.693;0.702;0.711;0.719;0.728;0.737;0.746;0.754;0.763;0.772;0.781;1" values="180,0,0;180,0,0;174.939,0,0;169.689,0,0;164.436,0,0;159.178,0,0;153.92,0,0;148.659,0,0;143.396,0,0;138.133,0,0;132.869,0,0;127.606,0,0;122.344,0,0;117.082,0,0;111.824,0,0;106.567,0,0;101.312,0,0;96.06,0,0;90.812,0,0;85.94,0,0;80.69,0,0;75.437,0,0;70.181,0,0;64.922,0,0;59.587,0,0;59.587,0,0" calcMode="discrete"/><animateTransform attributeName="transform" additive="sum" type="scale" begin="indefinite" dur="2.28s" keyTimes="0;0.579;0.588;0.596;0.605;0.614;0.623;0.632;0.64;0.684;0.693;0.702;0.711;0.719;0.728;0.737;0.746;0.754;0.763;0.772;0.781;1" values="1,1;1,1;0.999,0.999;0.999,0.999;0.998,0.998;0.998,0.998;0.997,0.997;0.997,0.997;0.996,0.996;0.996,0.996;0.997,0.997;0.997,0.997;0.998,0.998;0.998,0.998;0.999,0.999;0.998,0.998;0.998,0.998;0.997,0.997;0.996,0.996;0.996,0.996;0.997,0.997;0.997,0.997" calcMode="discrete"/><path fill="#FFF" d="M0,-162L0,-108Q44.75,-108 76.35,-76.4 108,-44.75 108,0 108,44.75 76.35,76.35 44.75,108 0,108L0,162Q67.15,162 114.55,114.55 162,67.15 162,0 162,-67.1 114.55,-114.6 67.15,-162 0,-162" fill-opacity="1"/></g><animate attributeName="display" begin="indefinite" repeatCount="1" dur="2.28s" keyTimes="0;0.579;1" values="none;inline;none"/></mask><g><g id="red_dot_copy" transform="matrix(1 0 0 1 140 9.7)"><path fill="#FD3D39" d="M3.2,-3.15Q1.9,-4.55 0,-4.55 -1.8,-4.55 -3.2,-3.15 -4.55,-1.8 -4.55,0 -4.55,1.9 -3.2,3.2 -1.8,4.55 0,4.55 1.9,4.55 3.2,3.2 4.55,1.9 4.55,0 4.55,-1.8 3.2,-3.15"/></g><animate attributeName="display" begin="indefinite" repeatCount="1" dur="2.28s" keyTimes="0;0.202;1" values="none;inline;none"/></g><g style="display:none;"><use xlink:href="#red_dot" width="110" height="110" x="-55" y="-55" overflow="visible" transform="matrix(0.833 0 0 0.833 140 9.7)" opacity="0"><animateTransform attributeName="transform" additive="replace" type="translate" begin="indefinite" dur="2.28s" keyTimes="0;0.175;0.193;1" values="140,9.7;140,9.7;140,9.7;140,9.7" calcMode="discrete"/><animateTransform attributeName="transform" additive="sum" type="scale" begin="indefinite" dur="2.28s" keyTimes="0;0.175;0.184;0.193;1" values="0.5,0.5;0.5,0.5;0.667,0.667;0.833,0.833;0.833,0.833" calcMode="discrete"/><animate attributeName="opacity" begin="indefinite" dur="2.28s" keyTimes="0;0.175;0.184;0.193;1" values="0;0;0.33;0.67;0.67" calcMode="discrete"/></use><animate attributeName="display" begin="indefinite" repeatCount="1" dur="2.28s" keyTimes="0;0.175;0.202;1" values="none;inline;none;none"/></g><g style="display:none;"><use xlink:href="#red_dot" width="110" height="110" x="-55" y="-55" overflow="visible" transform="matrix(1 0 0 1 140 270.3)"><animateTransform attributeName="transform" additive="replace" type="translate" begin="indefinite" dur="2.28s" keyTimes="0;0.202;0.211;0.219;0.228;0.237;0.246;0.254;0.263;0.272;0.281;0.289;0.298;0.307;0.316;0.325;0.333;0.342;0.351;0.36;0.368;0.377;0.386;0.395;0.404;0.412;0.421;0.43;0.439;0.447;0.456;0.465;0.474;0.482;0.491;0.5;0.509;0.518;0.526;0.535;0.544;0.553;0.561;0.57;0.579;0.5877192982456141;1" values="140,9.7;140,9.7;130.55,10;121.1,10.95;111.75,12.55;102.5,14.85;93.45,17.85;84.65,21.6;76.2,26;68.05,31.1;60.35,36.75;53.05,42.95;46.2,49.55;39.85,56.55;33.95,64;28.6,71.85;23.85,80.1;19.75,88.75;16.35,97.7;13.65,106.85;11.7,116.2;10.4,125.7;9.8,135.25;9.75,144.75;10.4,154.2;11.65,163.6;13.6,172.9;16.25,182.05;19.65,191;23.7,199.65;28.45,207.95;33.85,215.85;39.75,223.4;46.2,230.45;53,237.05;60.2,243.2;67.85,248.8;75.9,253.85;84.35,258.3;93.15,262.05;102.25,265.1;111.5,267.4;120.95,269.05;130.45,270;140,270.3;140,270.3;140,270.3" calcMode="discrete"/></use><animate attributeName="display" begin="indefinite" repeatCount="1" dur="2.28s" keyTimes="0;0.202;0.588;1" values="none;inline;none;none"/></g><g><use xlink:href="#red_dot" width="110" height="110" x="-55" y="-55" overflow="visible" transform="matrix(1 0 0 1 252.45 73.7)"><animateTransform attributeName="transform" additive="replace" type="translate" begin="indefinite" dur="2.28s" keyTimes="0;0.579;0.588;0.596;0.605;0.614;0.623;0.632;0.64;0.649;0.658;0.667;0.675;0.684;0.693;0.702;0.711;0.719;0.728;0.737;0.746;0.754;0.763;0.772;0.781;1" values="140,270.3;140,270.3;151.85,269.85;163.6,268.35;175.25,265.8;186.6,262.1;197.6,257.3;208.05,251.45;217.9,244.6;227.05,236.95;235.55,228.6;243.3,219.6;250.2,209.95;256.25,199.65;261.25,188.8;265.15,177.45;267.9,165.8;269.6,153.95;270.25,142;269.9,130.1;268.6,118.3;266.25,106.65;262.75,95.25;258.15,84.2;252.45,73.7;252.45,73.7" calcMode="discrete"/></use><animate attributeName="display" begin="indefinite" repeatCount="1" dur="2.28s" keyTimes="0;0.579;1" values="none;inline;none"/></g><defs><symbol id="red_dot" viewBox="-54.55 -54.55 109.1 109.1"><path fill="#FD3D39" d="M3.2,-3.15Q1.9,-4.55 0,-4.55 -1.8,-4.55 -3.2,-3.15 -4.55,-1.8 -4.55,0 -4.55,1.9 -3.2,3.2 -1.8,4.55 0,4.55 1.9,4.55 3.2,3.2 4.55,1.9 4.55,0 4.55,-1.8 3.2,-3.15"/>
</symbol><symbol id="grey-circle" viewBox="-184.85 -184.85 369.75 369.75"><path fill="#DCDCDC" d="M8.6,-134.6Q6.5,-134.75 4.45,-134.8 2.25,-134.85 0.05,-134.85L0,-134.85 0,-125.55 0.05,-125.55Q2.1,-125.55 4.15,-125.5 6.05,-125.45 8,-125.3 54.9,-122.7 88.85,-88.8 125.6,-52 125.6,0 125.6,52.05 88.85,88.85 52.05,125.6 0.05,125.6L0,125.6 0,134.9 0.05,134.9Q55.9,134.9 95.4,95.4 134.9,55.9 134.9,0 134.9,-55.85 95.4,-95.35 58.95,-131.8 8.6,-134.6"/><path fill="#DCDCDC" d="M0,-125.55L0,-134.85Q-55.867,-134.833 -95.35,-95.35 -134.85,-55.85 -134.85,0 -134.85,55.9 -95.35,95.4 -55.867,134.883 0,134.9L0,125.6Q-52.017,125.583 -88.75,88.85 -125.55,52.05 -125.55,0 -125.55,-52 -88.75,-88.8 -52.017,-125.533 0,-125.55"/>
</symbol></defs></svg>