<?xml version="1.0" encoding="utf-8"?><svg xmlns:xlink="http://www.w3.org/1999/xlink" id="Scene_1" image-rendering="auto" baseProfile="basic" version="1.1" x="0px" y="0px" width="280" height="280" viewBox="0 0 280 280" xmlns="http://www.w3.org/2000/svg"><g><g id="grey-circle" transform="matrix(1 0 0 1 139.95 140)"><path fill="#DCDCDC" d="M8.6,-134.6Q6.5,-134.75 4.45,-134.8 2.25,-134.85 0.05,-134.85L0,-134.85 0,-125.55 0.05,-125.55Q2.1,-125.55 4.15,-125.5 6.05,-125.45 8,-125.3 54.9,-122.7 88.85,-88.8 125.6,-52 125.6,0 125.6,52.05 88.85,88.85 52.05,125.6 0.05,125.6L0,125.6 0,134.9 0.05,134.9Q55.9,134.9 95.4,95.4 134.9,55.9 134.9,0 134.9,-55.85 95.4,-95.35 58.95,-131.8 8.6,-134.6"/><path fill="#DCDCDC" d="M0,-125.55L0,-134.85Q-55.867,-134.833 -95.35,-95.35 -134.85,-55.85 -134.85,0 -134.85,55.9 -95.35,95.4 -55.867,134.883 0,134.9L0,125.6Q-52.017,125.583 -88.75,88.85 -125.55,52.05 -125.55,0 -125.55,-52 -88.75,-88.8 -52.017,-125.533 0,-125.55"/></g></g><g mask="url(#Scene_1_3_0)" id="Scene 1_4.0"><path fill="#FD3D39" d="M140,14.45L140,5.15Q84.1,5.15 44.6,44.65 5.1,84.15 5.1,140 5.1,195.9 44.6,235.4 84.1,274.9 140,274.9L140,265.6Q87.95,265.6 51.2,228.85 14.4,192.05 14.4,140 14.4,88 51.2,51.2 87.95,14.45 140,14.45"/></g><mask id="Scene_1_3_0"><g id="mask-3" transform="matrix(1 0 0 1 140 140)"><path fill="#FFF" d="M0,-108L0,-162Q-67.1,-162 -114.6,-114.6 -162,-67.1 -162,0 -162,67.15 -114.6,114.55 -67.1,162 0,162L0,108Q-44.75,108 -76.4,76.35 -108,44.75 -108,0 -108,-44.75 -76.4,-76.4 -44.75,-108 0,-108" fill-opacity="1"/></g></mask><g mask="url(#Scene_1_1_0)" id="Scene 1_2.0"><path fill="#FD3D39" d="M228.8,51.2Q265.55,88 265.55,140 265.55,192.05 228.8,228.85 192,265.6 140,265.6L140,274.9Q195.85,274.9 235.35,235.4 274.85,195.9 274.85,140 274.85,84.15 235.35,44.65 198.9,8.2 148.55,5.4 146.45,5.25 144.4,5.2 142.2,5.15 140,5.15L140,14.45Q142.05,14.45 144.1,14.5 146,14.55 147.95,14.7 194.85,17.3 228.8,51.2"/></g><mask id="Scene_1_1_0" opacity="9999999999999.99"><g id="mask-2" transform="matrix(0.505 0.861 -0.861 0.505 140 140)"><path fill="#FFF" d="M0,-162L0,-108Q44.75,-108 76.35,-76.4 108,-44.75 108,0 108,44.75 76.35,76.35 44.75,108 0,108L0,162Q67.15,162 114.55,114.55 162,67.15 162,0 162,-67.1 114.55,-114.6 67.15,-162 0,-162" fill-opacity="1"/></g></mask><g><g id="red_dot" transform="matrix(1 0 0 1 252.45 73.7)"><path fill="#FD3D39" d="M3.2,-3.15Q1.9,-4.55 0,-4.55 -1.8,-4.55 -3.2,-3.15 -4.55,-1.8 -4.55,0 -4.55,1.9 -3.2,3.2 -1.8,4.55 0,4.55 1.9,4.55 3.2,3.2 4.55,1.9 4.55,0 4.55,-1.8 3.2,-3.15"/></g></g><defs/></svg>