<?xml version="1.0" encoding="utf-8"?><svg xmlns:xlink="http://www.w3.org/1999/xlink" id="Scene_1" image-rendering="auto" baseProfile="basic" version="1.1" x="0px" y="0px" width="1135" height="764" viewBox="0 0 1135 764" xmlns="http://www.w3.org/2000/svg"><g><use xlink:href="#red_dot_animated" width="120" height="120" x="-60" y="-60" overflow="visible" transform="matrix(1 0 0 1 227.75 218.4)"/></g><g><use xlink:href="#red_dot_animated" width="120" height="120" x="-60" y="-60" overflow="visible" transform="matrix(1 0 0 1 182.7 340.5)"/></g><g><use xlink:href="#red_dot_animated" width="120" height="120" x="-60" y="-60" overflow="visible" transform="matrix(1 0 0 1 415.6 234.1)"/></g><g><use xlink:href="#red_dot_animated" width="120" height="120" x="-60" y="-60" overflow="visible" transform="matrix(1 0 0 1 566.1 357.6)"/></g><g><use xlink:href="#red_dot_animated" width="120" height="120" x="-60" y="-60" overflow="visible" transform="matrix(1 0 0 1 545.35 424.65)"/></g><g><use xlink:href="#red_dot_animated" width="120" height="120" x="-60" y="-60" overflow="visible" transform="matrix(1 0 0 1 675.15 295.35)"/></g><g><use xlink:href="#red_dot_animated" width="120" height="120" x="-60" y="-60" overflow="visible" transform="matrix(1 0 0 1 701.15 318.6)"/></g><g><use xlink:href="#red_dot_animated" width="120" height="120" x="-60" y="-60" overflow="visible" transform="matrix(1 0 0 1 647.4 433.1)"/></g><g><use xlink:href="#red_dot_animated" width="120" height="120" x="-60" y="-60" overflow="visible" transform="matrix(1 0 0 1 664.2 506.65)"/></g><g><use xlink:href="#red_dot_animated" width="120" height="120" x="-60" y="-60" overflow="visible" transform="matrix(1 0 0 1 751.45 481.35)"/></g><g><use xlink:href="#red_dot_animated" width="120" height="120" x="-60" y="-60" overflow="visible" transform="matrix(1 0 0 1 877.25 283.05)"/></g><g><use xlink:href="#red_dot_animated" width="120" height="120" x="-60" y="-60" overflow="visible" transform="matrix(1 0 0 1 944.75 340.6)"/></g><g><use xlink:href="#red_dot_animated" width="120" height="120" x="-60" y="-60" overflow="visible" transform="matrix(1 0 0 1 990.75 269.05)"/></g><g><use xlink:href="#red_dot_animated" width="120" height="120" x="-60" y="-60" overflow="visible" transform="matrix(1 0 0 1 1009.75 335.6)"/></g><g><g id="dots_and_lines.ai_Layer_1_.__3CPath.__3E" transform="matrix(1 0 0 1 415.75 233.75)"><path fill="none" stroke="#FD3D39" stroke-width="2" stroke-linecap="round" stroke-linejoin="round" d="M0,0.5Q12.55,0.5 31.8,3.6 70.4,9.85 104.15,25.35 151.4,47.1 182.3,84.4 220.95,131.05 231.65,199.4 220.95,131.05 182.3,84.4 151.4,47.1 104.15,25.35 70.4,9.85 31.8,3.6 12.55,0.5 0,0.5"/></g></g><g><g id="dots_and_lines.ai_Layer_1_.__3CPath.__3E_12" transform="matrix(1 0 0 1 415.45 181.75)"><path fill="none" stroke="#FD3D39" stroke-width="2" stroke-linecap="round" stroke-linejoin="round" d="M179.85,13.9Q227.9,39.75 259.8,114.25 227.9,39.75 179.85,13.9 142.2,-6.35 96.05,3.9 63.7,11.1 28.75,32.5 11.3,43.25 0.3,52.5 11.3,43.25 28.75,32.5 63.7,11.1 96.05,3.9 142.2,-6.35 179.85,13.9"/></g></g><g><g id="dots_and_lines.ai_Layer_1_.__3CPath.__3E_11" transform="matrix(1 0 0 1 944.3 246.4)"><path fill="none" stroke="#FD3D39" stroke-width="2" stroke-linecap="round" stroke-linejoin="round" d="M23.8,16.9Q32.75,-0.2 37.95,0.55 43.55,1.3 46.45,22.75 43.55,1.3 37.95,0.55 32.75,-0.2 23.8,16.9 16.6,30.6 7.8,63.8 3.4,80.4 0.45,94.25 3.4,80.4 7.8,63.8 16.6,30.6 23.8,16.9"/></g></g><g><g id="dots_and_lines.ai_Layer_1_.__3CPath.__3E_10" transform="matrix(1 0 0 1 751.05 340.2)"><path fill="none" stroke="#FD3D39" stroke-width="2" stroke-linecap="round" stroke-linejoin="round" d="M0.45,141.2Q4.25,132.9 12,120.3 27.55,95.1 47.4,73.7 75.15,43.75 107.6,25.7 148.15,3.1 193.7,0.45 148.15,3.1 107.6,25.7 75.15,43.75 47.4,73.7 27.55,95.1 12,120.3 4.25,132.9 0.45,141.2"/></g></g><g><g id="dots_and_lines.ai_Layer_1_.__3CPath.__3E_9" transform="matrix(1 0 0 1 876.9 261.55)"><path fill="none" stroke="#FD3D39" stroke-width="2" stroke-linecap="round" stroke-linejoin="round" d="M121.65,56.45Q129.9,67.35 132.85,74 129.9,67.35 121.65,56.45 105.15,34.65 78.85,13.5 52.9,-7.35 24.05,5.05 9.6,11.25 0.35,21.6 9.6,11.25 24.05,5.05 52.9,-7.35 78.85,13.5 105.15,34.65 121.65,56.45"/></g></g><g><g id="dots_and_lines.ai_Layer_1_.__3CPath.__3E_8" transform="matrix(1 0 0 1 751.05 201.45)"><path fill="none" stroke="#FD3D39" stroke-width="2" stroke-linecap="round" stroke-linejoin="round" d="M85,0.95Q109.15,-5.45 126.2,81.7 109.15,-5.45 85,0.95 65.95,5.95 45.55,66.25 31.4,108.15 14.5,198.25 6.05,243.3 0.45,279.95 6.05,243.3 14.5,198.25 31.4,108.15 45.55,66.25 65.95,5.95 85,0.95"/></g></g><g><g id="dots_and_lines.ai_Layer_1_.__3CPath.__3E_7" transform="matrix(1 0 0 1 751.1 291.9)"><path fill="none" stroke="#FD3D39" stroke-width="2" stroke-linecap="round" stroke-linejoin="round" d="M198.3,0.55Q233.65,0.3 258.65,43.65 233.65,0.3 198.3,0.55 162.55,0.75 111.85,45.75 72.65,80.55 32.6,138.5 12.6,167.5 0.4,189.5 12.6,167.5 32.6,138.5 72.65,80.55 111.85,45.75 162.55,0.75 198.3,0.55"/></g></g><g><g id="dots_and_lines.ai_Layer_1_.__3CPath.__3E_6" transform="matrix(1 0 0 1 674.8 238.95)"><path fill="none" stroke="#FD3D39" stroke-width="2" stroke-linecap="round" stroke-linejoin="round" d="M11.45,12.05Q17.85,-4.25 25.95,2.25 37.7,11.7 50.45,68.7 62.55,122.65 70.85,187.95 75,220.6 76.7,242.45 75,220.6 70.85,187.95 62.55,122.65 50.45,68.7 37.7,11.7 25.95,2.25 17.85,-4.25 11.45,12.05 7.7,21.65 3.7,40.3 1.7,49.65 0.45,57.05 1.7,49.65 3.7,40.3 7.7,21.65 11.45,12.05"/></g></g><g><g id="dots_and_lines.ai_Layer_1_.__3CPath.__3E_5" transform="matrix(1 0 0 1 182.4 257.35)"><path fill="none" stroke="#FD3D39" stroke-width="2" stroke-linecap="round" stroke-linejoin="round" d="M335.45,52.8Q415.4,114.9 481.85,249.3 415.4,114.9 335.45,52.8 264.35,-2.45 184.35,0.65 122.15,3.05 55.05,43.4 34.05,56.05 15.1,70.95 5.65,78.4 0.35,83.3 5.65,78.4 15.1,70.95 34.05,56.05 55.05,43.4 122.15,3.05 184.35,0.65 264.35,-2.45 335.45,52.8"/></g></g><g><g id="dots_and_lines.ai_Layer_1_.__3CPath.__3E_4" transform="matrix(1 0 0 1 544.85 272.1)"><path fill="none" stroke="#FD3D39" stroke-width="2" stroke-linecap="round" stroke-linejoin="round" d="M128.25,0.6Q152.05,-1.85 156.4,46.55 152.05,-1.85 128.25,0.6 108.6,2.65 76.65,39.05 53.2,65.75 24.45,111.85 10.1,134.85 0.4,152.55 10.1,134.85 24.45,111.85 53.2,65.75 76.65,39.05 108.6,2.65 128.25,0.6"/></g></g><g><g id="dots_and_lines.ai_Layer_1_.__3CPath.__3E_3" transform="matrix(1 0 0 1 227.65 183.9)"><path fill="none" stroke="#FD3D39" stroke-width="2" stroke-linecap="round" stroke-linejoin="round" d="M172.95,8.1Q225.3,25.75 275.3,83.2 306.2,118.75 338.6,173.65 306.2,118.75 275.3,83.2 225.3,25.75 172.95,8.1 122.95,-8.75 56.6,11.15 35.9,17.4 16,26.55 6.05,31.1 0.25,34.45 6.05,31.1 16,26.55 35.9,17.4 56.6,11.15 122.95,-8.75 172.95,8.1"/></g></g><g><g id="dots_and_lines.ai_Layer_1_.__3CPath.__3E_2" transform="matrix(1 0 0 1 565.8 226.3)"><path fill="none" stroke="#FD3D39" stroke-width="2" stroke-linecap="round" stroke-linejoin="round" d="M373.05,59.65Q411.3,81.95 443.95,109.25 411.3,81.95 373.05,59.65 333.5,36.6 293.25,21.95 250.65,6.5 211.7,2.15 169.9,-2.55 135.45,6.05 76.1,20.85 32.35,77.5 18.65,95.25 8.2,115 2.95,124.9 0.45,131.25 2.95,124.9 8.2,115 18.65,95.25 32.35,77.5 76.1,20.85 135.45,6.05 169.9,-2.55 211.7,2.15 250.65,6.5 293.25,21.95 333.5,36.6 373.05,59.65"/></g></g><defs><symbol id="red_dot_animated" viewBox="-60 -60 120 120"><path fill="#FD3D39" d="M7.1,-7.05Q4.15,-10 0,-10 -4.1,-10 -7.05,-7.05 -10,-4.1 -10,0 -10,4.15 -7.05,7.1 -4.15,10 0,10 4.15,10 7.1,7.1 10,4.15 10,0 10,-4.15 7.1,-7.05" opacity="0.3"/><path fill="#FD3D39" d="M3.55,-3.5Q2.05,-5 0,-5 -2,-5 -3.5,-3.5 -5,-2 -5,0 -5,2.05 -3.5,3.55 -2.05,5 0,5 2.05,5 3.55,3.55 5,2.05 5,0 5,-2.05 3.55,-3.5"/>
</symbol></defs></svg>