<?xml version="1.0" encoding="utf-8"?><svg xmlns:xlink="http://www.w3.org/1999/xlink" id="Scene_1" image-rendering="auto" baseProfile="basic" version="1.1" x="0px" y="0px" width="280" height="280" viewBox="0 0 280 280" xmlns="http://www.w3.org/2000/svg"><g><use xlink:href="#grey-circle" width="370" height="370" x="-185" y="-185" overflow="visible" transform="matrix(0.64 -0.768 0.768 0.64 139.95 140.05)"/><animate attributeName="display" begin="indefinite" repeatCount="1" dur="2.28s" keyTimes="0;0.193;1" values="none;inline;none"/></g><g style="display:none;"><use xlink:href="#grey-circle" width="370" height="370" x="-185" y="-185" overflow="visible" transform="matrix(0.64 -0.768 0.768 0.64 139.95 140.05)" opacity="0"><animateTransform attributeName="transform" additive="replace" type="translate" begin="indefinite" dur="2.28s" keyTimes="0;0.018;0.026;0.035;0.044;0.053;0.061;0.07;0.079;0.088;0.096;0.105;0.114;0.123;0.132;0.14;0.149;0.158;0.167;0.175;0.184;0.2017543859649123;1" values="139.95,140.05;139.95,140.05;140,140;140,140;140,140.05;140,140.05;140,140;139.95,139.95;140,140;139.95,140;140,140.05;139.95,140.1;139.95,140;139.9,140.05;139.95,140.1;139.95,140.05;139.95,140.05;139.9,140.05;139.95,140.05;139.95,140;139.95,140.05;139.95,140.05;139.95,140.05" calcMode="discrete"/><animateTransform attributeName="transform" additive="sum" type="rotate" begin="indefinite" dur="2.28s" keyTimes="0;0.018;0.026;0.035;0.044;0.053;0.079;0.088;0.096;0.105;0.114;0.123;0.14;0.149;0.158;0.167;0.175;0.184;0.193;0.2017543859649123;1" values="-50.214,0,0;-50.214,0,0;-50.163,0,0;-50.164,0,0;-50.165,0,0;-50.164,0,0;-50.164,0,0;-50.165,0,0;-50.164,0,0;-50.163,0,0;-50.163,0,0;-50.164,0,0;-50.164,0,0;-50.165,0,0;-50.164,0,0;-50.213,0,0;-50.165,0,0;-50.164,0,0;-50.214,0,0;-50.214,0,0;-50.214,0,0" calcMode="discrete"/><animateTransform attributeName="transform" additive="sum" type="scale" begin="indefinite" dur="2.28s" keyTimes="0;0.018;0.026;0.035;0.044;0.053;0.061;0.07;0.079;0.088;0.096;0.105;0.114;0.123;0.132;0.14;0.149;0.158;0.167;0.175;0.184;0.2017543859649123;1" values="0.948,0.948;0.948,0.948;0.948,0.948;0.949,0.949;0.951,0.951;0.952,0.952;0.955,0.955;0.957,0.957;0.96,0.96;0.963,0.963;0.967,0.967;0.97,0.97;0.975,0.975;0.979,0.979;0.984,0.984;0.989,0.989;0.995,0.995;1,1;1.008,1.008;1.001,1.001;0.998,0.998;0.998,0.998;0.998,0.998" calcMode="discrete"/><animate attributeName="opacity" begin="indefinite" dur="2.28s" keyTimes="0;0.018;0.026;0.035;0.044;0.053;0.061;0.07;0.079;0.088;0.096;0.105;0.114;0.123;0.132;0.14;0.149;0.158;0.167;0.2017543859649123;1" values="0;0;0.02;0.04;0.06;0.09;0.13;0.17;0.22;0.27;0.33;0.39;0.46;0.54;0.62;0.71;0.8;0.9;1;1;1" calcMode="discrete"/></use><animate attributeName="display" begin="indefinite" repeatCount="1" dur="2.28s" keyTimes="0;0.018;0.202;1" values="none;inline;none;none"/></g><g mask="url(#Scene_1_8_23)" id="Scene 1_9.23"><path fill="#FD3D39" d="M43.5,59.65L36.35,53.7Q0.55,96.65 5.65,152.3 10.7,207.95 53.65,243.7 96.6,279.45 152.25,274.4 207.85,269.25 243.65,226.3L236.5,220.35Q203.2,260.35 151.4,265.1 99.6,269.85 59.6,236.55 19.6,203.25 14.9,151.4 10.2,99.65 43.5,59.65"/><animate attributeName="display" begin="indefinite" repeatCount="1" dur="2.28s" keyTimes="0;0.202;1" values="none;inline;none"/></g><mask id="Scene_1_8_23"><g id="mask-3" transform="matrix(0.64 -0.768 0.768 0.64 140 140)"><animateTransform attributeName="transform" additive="replace" type="translate" begin="indefinite" dur="2.28s" keyTimes="0;0.202;0.211;0.219;0.228;0.237;0.246;0.254;0.263;0.281;0.289;0.298;0.307;0.316;0.325;0.333;0.342;0.351;0.36;0.368;0.377;0.386;0.395;0.404;0.412;0.421;0.43;0.439;0.447;0.456;0.465;0.474;0.482;0.491;0.518;0.526;0.535;0.544;0.553;0.561;0.57;0.579;1" values="140,140;140,140;140,139.95;140,140;140,140;140,139.95;140,140;140,140;139.95,139.95;139.95,139.95;139.95,140;140,140;140,139.95;139.95,140;139.95,140;140,140;139.95,139.95;140,140;139.95,140;140,140;139.95,140.05;139.95,139.95;139.95,140;139.95,140.05;140,140.05;139.95,140;139.95,140;140,140;139.95,140;140,140.05;139.95,140.05;140,140;139.95,140;140,140.05;140,140.05;140,140;140.05,140.05;140,140.05;140,140;139.95,140.05;140,140.05;140,140;140,140" calcMode="discrete"/><animateTransform attributeName="transform" additive="sum" type="rotate" begin="indefinite" dur="2.28s" keyTimes="0;0.202;0.211;0.219;0.228;0.237;0.246;0.254;0.263;0.272;0.281;0.289;0.298;0.307;0.316;0.325;0.333;0.342;0.351;0.36;0.368;0.377;0.386;0.395;0.404;0.412;0.421;0.43;0.439;0.447;0.456;0.465;0.474;0.482;0.491;0.5;0.509;0.518;0.526;0.535;0.544;0.553;0.561;0.57;0.579;1" values="129.786,0,0;129.786,0,0;125.588,0,0;121.342,0,0;117.097,0,0;113.04,0,0;108.797,0,0;104.553,0,0;100.314,0,0;96.264,0,0;92.028,0,0;87.98,0,0;83.745,0,0;79.695,0,0;75.455,0,0;71.214,0,0;66.971,0,0;62.914,0,0;58.666,0,0;54.42,0,0;50.361,0,0;46.113,0,0;41.865,0,0;37.618,0,0;33.559,0,0;29.313,0,0;25.067,0,0;20.823,0,0;16.769,0,0;12.528,0,0;8.289,0,0;4.052,0,0;0.004,0,0;-4.042,0,0;-8.28,0,0;-12.518,0,0;-16.571,0,0;-20.814,0,0;-25.057,0,0;-29.303,0,0;-33.363,0,0;-37.608,0,0;-41.856,0,0;-46.104,0,0;-50.214,0,0;-50.214,0,0" calcMode="discrete"/><animateTransform attributeName="transform" additive="sum" type="scale" begin="indefinite" dur="2.28s" keyTimes="0;0.202;0.211;0.228;0.237;0.254;0.263;0.272;0.281;0.289;0.298;0.307;0.316;0.333;0.342;0.421;0.43;0.439;0.447;0.456;0.465;0.482;0.491;0.5;0.509;0.518;0.526;0.57;0.579;1" values="0.998,0.998;0.998,0.998;0.997,0.997;0.997,0.997;0.998,0.998;0.998,0.998;0.999,0.999;0.999,0.999;1,1;1,1;0.999,0.999;0.999,0.999;0.998,0.998;0.998,0.998;0.997,0.997;0.997,0.997;0.998,0.998;0.998,0.998;0.999,0.999;0.999,0.999;1,1;1,1;0.999,0.999;0.999,0.999;0.998,0.998;0.998,0.998;0.997,0.997;0.997,0.997;0.998,0.998;0.998,0.998" calcMode="discrete"/><path fill="#FFF" d="M0,-108L0,-162Q-67.1,-162 -114.6,-114.6 -162,-67.1 -162,0 -162,67.15 -114.6,114.55 -67.1,162 0,162L0,108Q-44.75,108 -76.4,76.35 -108,44.75 -108,0 -108,-44.75 -76.4,-76.4 -44.75,-108 0,-108" fill-opacity="1"/></g><animate attributeName="display" begin="indefinite" repeatCount="1" dur="2.28s" keyTimes="0;0.202;1" values="none;inline;none"/></mask><g mask="url(#Scene_1_6_66)" id="Scene 1_7.66"><path fill="#FD3D39" d="M274.3,127.8Q269.25,72.15 226.3,36.4 183.35,0.65 127.7,5.7 76.4,10.4 42,47.3 40.55,48.8 39.2,50.4 37.75,52.05 36.35,53.7L43.5,59.65Q44.8,58.1 46.15,56.55 47.45,55.1 48.8,53.7 80.8,19.3 128.55,14.95 180.35,10.25 220.35,43.55 260.35,76.85 265.05,128.65 269.75,180.4 236.5,220.35L243.65,226.3Q279.4,183.4 274.3,127.8"/><animate attributeName="display" begin="indefinite" repeatCount="1" dur="2.28s" keyTimes="0;0.579;1" values="none;inline;none"/></g><mask id="Scene_1_6_66" opacity="9999999999999.99"><g id="mask-2" transform="matrix(0.985 0.163 -0.163 0.985 140 140)"><animateTransform attributeName="transform" additive="replace" type="translate" begin="indefinite" dur="2.28s" keyTimes="0;0.579;0.588;0.596;0.614;0.623;0.632;0.64;0.649;0.658;0.667;0.675;0.684;0.693;0.702;0.711;0.719;0.728;0.737;0.746;0.754;0.763;0.772;1" values="140,140;140,140;139.95,139.95;140,140;140,140;139.9,139.95;140,139.95;139.95,140;139.95,140;139.9,139.95;140,139.95;139.95,140;139.95,139.95;140.05,139.95;140,140;140,140;139.95,140;139.95,139.95;140,140;139.95,140.05;139.95,140.05;140.05,140;140,140;140,140" calcMode="discrete"/><animateTransform attributeName="transform" additive="sum" type="rotate" begin="indefinite" dur="2.28s" keyTimes="0;0.579;0.588;0.596;0.605;0.614;0.623;0.632;0.64;0.649;0.658;0.667;0.675;0.684;0.693;0.702;0.711;0.719;0.728;0.737;0.746;0.754;0.763;0.772;0.781;1" values="129.786,0,0;129.786,0,0;124.572,0,0;119.311,0,0;114.051,0,0;108.794,0,0;103.539,0,0;98.285,0,0;93.033,0,0;87.975,0,0;82.726,0,0;77.474,0,0;72.221,0,0;66.962,0,0;61.702,0,0;56.441,0,0;51.366,0,0;46.103,0,0;40.839,0,0;35.576,0,0;30.315,0,0;25.052,0,0;19.795,0,0;14.539,0,0;9.374,0,0;9.374,0,0" calcMode="discrete"/><animateTransform attributeName="transform" additive="sum" type="scale" begin="indefinite" dur="2.28s" keyTimes="0;0.579;0.588;0.605;0.614;0.623;0.632;0.658;0.667;0.675;0.684;0.693;0.763;0.772;0.781;1" values="0.998,0.998;0.998,0.998;0.997,0.997;0.997,0.997;0.998,0.998;0.998,0.998;0.999,0.999;0.999,0.999;0.998,0.998;0.997,0.997;0.997,0.997;0.996,0.996;0.996,0.996;0.997,0.997;0.998,0.998;0.998,0.998" calcMode="discrete"/><path fill="#FFF" d="M0,-162L0,-108Q44.75,-108 76.35,-76.4 108,-44.75 108,0 108,44.75 76.35,76.35 44.75,108 0,108L0,162Q67.15,162 114.55,114.55 162,67.15 162,0 162,-67.1 114.55,-114.6 67.15,-162 0,-162" fill-opacity="1"/></g><animate attributeName="display" begin="indefinite" repeatCount="1" dur="2.28s" keyTimes="0;0.579;1" values="none;inline;none"/></mask><g><g id="red_dot_copy" transform="matrix(0.64 -0.768 0.768 0.64 39.85 56.6)"><path fill="#FD3D39" d="M3.2,-3.15Q1.9,-4.55 0,-4.55 -1.8,-4.55 -3.2,-3.15 -4.55,-1.8 -4.55,0 -4.55,1.9 -3.2,3.2 -1.8,4.55 0,4.55 1.9,4.55 3.2,3.2 4.55,1.9 4.55,0 4.55,-1.8 3.2,-3.15"/></g><animate attributeName="display" begin="indefinite" repeatCount="1" dur="2.28s" keyTimes="0;0.202;1" values="none;inline;none"/></g><g style="display:none;"><use xlink:href="#red_dot" width="110" height="110" x="-55" y="-55" overflow="visible" transform="matrix(0.533 -0.639 0.639 0.533 39.85 56.6)" opacity="0"><animateTransform attributeName="transform" additive="replace" type="translate" begin="indefinite" dur="2.28s" keyTimes="0;0.175;0.193;1" values="39.85,56.6;39.85,56.6;39.85,56.6;39.85,56.6" calcMode="discrete"/><animateTransform attributeName="transform" additive="sum" type="rotate" begin="indefinite" dur="2.28s" keyTimes="0;0.175;0.184;0.193;1" values="-50.214,0,0;-50.214,0,0;-50.164,0,0;-50.165,0,0;-50.165,0,0" calcMode="discrete"/><animateTransform attributeName="transform" additive="sum" type="scale" begin="indefinite" dur="2.28s" keyTimes="0;0.175;0.184;0.193;1" values="0.499,0.499;0.499,0.499;0.665,0.665;0.831,0.831;0.831,0.831" calcMode="discrete"/><animate attributeName="opacity" begin="indefinite" dur="2.28s" keyTimes="0;0.175;0.184;0.193;1" values="0;0;0.33;0.67;0.67" calcMode="discrete"/></use><animate attributeName="display" begin="indefinite" repeatCount="1" dur="2.28s" keyTimes="0;0.175;0.202;1" values="none;inline;none;none"/></g><g style="display:none;"><use xlink:href="#red_dot" width="110" height="110" x="-55" y="-55" overflow="visible" transform="matrix(0.64 -0.768 0.768 0.64 240.1 223.35)"><animateTransform attributeName="transform" additive="replace" type="translate" begin="indefinite" dur="2.28s" keyTimes="0;0.202;0.211;0.219;0.228;0.237;0.246;0.254;0.263;0.272;0.281;0.289;0.298;0.307;0.316;0.325;0.333;0.342;0.351;0.36;0.368;0.377;0.386;0.395;0.404;0.412;0.421;0.43;0.439;0.447;0.456;0.465;0.474;0.482;0.491;0.5;0.509;0.518;0.526;0.535;0.544;0.553;0.561;0.57;0.579;0.5877192982456141;1" values="39.85,56.6;39.85,56.6;34.05,64.05;28.7,71.9;23.95,80.15;19.85,88.75;16.4,97.65;13.6,106.8;11.6,116.15;10.3,125.65;9.7,135.2;9.75,144.75;10.5,154.25;11.8,163.65;13.75,172.9;16.35,182.05;19.65,191;23.65,199.65;28.35,208;33.7,215.95;39.6,223.45;46.1,230.5;53,237.1;60.35,243.15;68,248.75;76,253.8;84.4,258.25;93.15,262.05;102.2,265.2;111.45,267.6;120.85,269.25;130.4,270.2;139.95,270.45;149.5,270.05;158.9,269.05;168.25,267.4;177.45,265.1;186.45,262.1;195.3,258.45;203.8,254.05;211.9,249.05;219.65,243.4;226.95,237.2;233.75,230.5;240.1,223.35;240.1,223.35;240.1,223.35" calcMode="discrete"/><animateTransform attributeName="transform" additive="sum" type="rotate" begin="indefinite" dur="2.28s" keyTimes="0;0.202;0.211;0.57;0.579;0.5877192982456141;1" values="-50.214,0,0;-50.214,0,0;-50.165,0,0;-50.165,0,0;-50.214,0,0;-50.214,0,0;-50.214,0,0" calcMode="discrete"/><animateTransform attributeName="transform" additive="sum" type="scale" begin="indefinite" dur="2.28s" keyTimes="0;0.202;0.211;0.57;0.579;0.5877192982456141;1" values="0.998,0.998;0.998,0.998;0.997,0.997;0.997,0.997;0.998,0.998;0.998,0.998;0.998,0.998" calcMode="discrete"/></use><animate attributeName="display" begin="indefinite" repeatCount="1" dur="2.28s" keyTimes="0;0.202;0.588;1" values="none;inline;none;none"/></g><g><use xlink:href="#red_dot" width="110" height="110" x="-55" y="-55" overflow="visible" transform="matrix(0.64 -0.768 0.768 0.64 161 11.15)"><animateTransform attributeName="transform" additive="replace" type="translate" begin="indefinite" dur="2.28s" keyTimes="0;0.579;0.588;0.596;0.605;0.614;0.623;0.632;0.64;0.649;0.658;0.667;0.675;0.684;0.693;0.702;0.711;0.719;0.728;0.737;0.746;0.754;0.763;0.772;0.781;1" values="240.1,223.35;240.1,223.35;247.3,214;253.65,203.95;259.15,193.35;263.6,182.3;266.9,170.8;269.1,159;270.15,147.1;270.15,135.1;269.15,123.25;267.2,111.55;264.2,100.05;260.15,88.85;255,78.05;248.8,67.8;241.6,58.2;233.6,49.3;224.8,41.2;215.45,33.85;205.55,27.3;195.05,21.65;184.05,17.05;172.65,13.55;161,11.15;161,11.15" calcMode="discrete"/><animateTransform attributeName="transform" additive="sum" type="rotate" begin="indefinite" dur="2.28s" keyTimes="0;0.579;0.588;0.772;0.781;1" values="-50.214,0,0;-50.214,0,0;-50.165,0,0;-50.165,0,0;-50.214,0,0;-50.214,0,0" calcMode="discrete"/><animateTransform attributeName="transform" additive="sum" type="scale" begin="indefinite" dur="2.28s" keyTimes="0;0.579;0.588;0.772;0.781;1" values="0.998,0.998;0.998,0.998;0.997,0.997;0.997,0.997;0.998,0.998;0.998,0.998" calcMode="discrete"/></use><animate attributeName="display" begin="indefinite" repeatCount="1" dur="2.28s" keyTimes="0;0.579;1" values="none;inline;none"/></g><defs><symbol id="red_dot" viewBox="-54.55 -54.55 109.1 109.1"><path fill="#FD3D39" d="M3.2,-3.15Q1.9,-4.55 0,-4.55 -1.8,-4.55 -3.2,-3.15 -4.55,-1.8 -4.55,0 -4.55,1.9 -3.2,3.2 -1.8,4.55 0,4.55 1.9,4.55 3.2,3.2 4.55,1.9 4.55,0 4.55,-1.8 3.2,-3.15"/>
</symbol><symbol id="grey-circle" viewBox="-184.85 -184.85 369.75 369.75"><path fill="#DCDCDC" d="M8.6,-134.6Q6.5,-134.75 4.45,-134.8 2.25,-134.85 0.05,-134.85L0,-134.85 0,-125.55 0.05,-125.55Q2.1,-125.55 4.15,-125.5 6.05,-125.45 8,-125.3 54.9,-122.7 88.85,-88.8 125.6,-52 125.6,0 125.6,52.05 88.85,88.85 52.05,125.6 0.05,125.6L0,125.6 0,134.9 0.05,134.9Q55.9,134.9 95.4,95.4 134.9,55.9 134.9,0 134.9,-55.85 95.4,-95.35 58.95,-131.8 8.6,-134.6"/><path fill="#DCDCDC" d="M0,-125.55L0,-134.85Q-55.867,-134.833 -95.35,-95.35 -134.85,-55.85 -134.85,0 -134.85,55.9 -95.35,95.4 -55.867,134.883 0,134.9L0,125.6Q-52.017,125.583 -88.75,88.85 -125.55,52.05 -125.55,0 -125.55,-52 -88.75,-88.8 -52.017,-125.533 0,-125.55"/>
</symbol></defs></svg>