<?xml version="1.0" encoding="utf-8"?><svg xmlns:xlink="http://www.w3.org/1999/xlink" id="Scene_1" image-rendering="auto" baseProfile="basic" version="1.1" x="0px" y="0px" width="280" height="280" viewBox="0 0 280 280" xmlns="http://www.w3.org/2000/svg"><g><use xlink:href="#grey-circle" width="370" height="370" x="-185" y="-185" overflow="visible" transform="matrix(0 1 -1 0 140 139.95)"/><animate attributeName="display" begin="indefinite" repeatCount="1" dur="2.28s" keyTimes="0;0.193;1" values="none;inline;none"/></g><g style="display:none;"><use xlink:href="#grey-circle" width="370" height="370" x="-185" y="-185" overflow="visible" transform="matrix(0 1 -1 0 140 139.95)" opacity="0"><animateTransform attributeName="transform" additive="replace" type="translate" begin="indefinite" dur="2.28s" keyTimes="0;0.018;0.026;0.035;0.044;0.053;0.061;0.07;0.079;0.088;0.096;0.105;0.114;0.123;0.132;0.14;0.149;0.158;0.2017543859649123;1" values="140,139.95;140,139.95;140.05,140;140,139.95;140.05,140;140,139.95;140.05,140;140,139.95;140,139.95;140.05,140;140,139.95;140,139.95;140.05,140;140,139.95;140,139.95;140.05,139.95;140.05,140;140,139.95;140,139.95;140,139.95" calcMode="discrete"/><animateTransform attributeName="transform" additive="sum" type="rotate" begin="indefinite" dur="2.28s" keyTimes="0;0.018;0.2017543859649123;1" values="90,0,0;90,0,0;90,0,0;90,0,0" calcMode="discrete"/><animateTransform attributeName="transform" additive="sum" type="scale" begin="indefinite" dur="2.28s" keyTimes="0;0.018;0.026;0.035;0.044;0.053;0.061;0.07;0.079;0.088;0.096;0.105;0.114;0.123;0.132;0.14;0.149;0.158;0.167;0.175;0.184;0.193;0.2017543859649123;1" values="0.95,0.95;0.95,0.95;0.951,0.951;0.952,0.952;0.954,0.954;0.955,0.955;0.958,0.958;0.96,0.96;0.963,0.963;0.966,0.966;0.97,0.97;0.974,0.974;0.978,0.978;0.982,0.982;0.987,0.987;0.992,0.992;0.998,0.998;1.004,1.004;1.01,1.01;1.004,1.004;1.001,1.001;1,1;1,1;1,1" calcMode="discrete"/><animate attributeName="opacity" begin="indefinite" dur="2.28s" keyTimes="0;0.018;0.026;0.035;0.044;0.053;0.061;0.07;0.079;0.088;0.096;0.105;0.114;0.123;0.132;0.14;0.149;0.158;0.167;0.2017543859649123;1" values="0;0;0.02;0.04;0.06;0.09;0.13;0.17;0.22;0.27;0.33;0.39;0.46;0.54;0.62;0.71;0.8;0.9;1;1;1" calcMode="discrete"/></use><animate attributeName="display" begin="indefinite" repeatCount="1" dur="2.28s" keyTimes="0;0.018;0.202;1" values="none;inline;none;none"/></g><g mask="url(#Scene_1_8_23)" id="Scene 1_9.23"><path fill="#FD3D39" d="M265.55,140L274.85,140Q274.85,84.1 235.35,44.6 195.85,5.1 140,5.1 84.1,5.1 44.6,44.6 5.1,84.1 5.1,140L14.4,140Q14.4,87.95 51.15,51.2 87.95,14.4 140,14.4 192,14.4 228.8,51.2 265.55,87.95 265.55,140"/><animate attributeName="display" begin="indefinite" repeatCount="1" dur="2.28s" keyTimes="0;0.202;1" values="none;inline;none"/></g><mask id="Scene_1_8_23"><g id="mask-3" transform="matrix(0 1 -1 0 140 140)"><animateTransform attributeName="transform" additive="replace" type="translate" begin="indefinite" dur="2.28s" keyTimes="0;0.202;1" values="140,140;140,140;140,140" calcMode="discrete"/><animateTransform attributeName="transform" additive="sum" type="rotate" begin="indefinite" dur="2.28s" keyTimes="0;0.202;0.211;0.219;0.228;0.237;0.246;0.254;0.263;0.272;0.281;0.289;0.298;0.307;0.316;0.325;0.333;0.342;0.351;0.36;0.368;0.377;0.386;0.395;0.404;0.412;0.421;0.43;0.439;0.447;0.456;0.465;0.474;0.482;0.491;0.5;0.509;0.518;0.526;0.535;0.544;0.553;0.561;0.57;0.579;1" values="-90,0,0;-90,0,0;-94.048,0,0;-98.284,0,0;-102.523,0,0;-106.577,0,0;-110.819,0,0;-115.063,0,0;-119.309,0,0;-123.366,0,0;-127.613,0,0;-131.862,0,0;-136.109,0,0;-140.169,0,0;-144.416,0,0;-148.663,0,0;-152.909,0,0;-156.965,0,0;-161.209,0,0;-165.451,0,0;-169.691,0,0;-173.741,0,0;-177.976,0,0;-182.024,0,0;-186.259,0,0;-190.309,0,0;-194.549,0,0;-198.791,0,0;-203.035,0,0;-207.091,0,0;-211.337,0,0;-215.584,0,0;-219.831,0,0;-223.891,0,0;-228.138,0,0;-232.387,0,0;-236.634,0,0;-240.691,0,0;-244.937,0,0;-249.181,0,0;-253.423,0,0;-257.477,0,0;-261.716,0,0;-265.952,0,0;-270,0,0;-270,0,0" calcMode="discrete"/><animateTransform attributeName="transform" additive="sum" type="scale" begin="indefinite" dur="2.28s" keyTimes="0;0.202;0.211;0.219;0.228;0.237;0.246;0.254;0.333;0.342;0.36;0.368;0.377;0.386;0.395;0.404;0.412;0.421;0.439;0.447;0.526;0.535;0.544;0.553;0.561;0.57;1" values="1,1;1,1;1,1;0.999,0.999;0.999,0.999;0.998,0.998;0.998,0.998;0.997,0.997;0.997,0.997;0.998,0.998;0.998,0.998;0.999,0.999;0.999,0.999;1,1;1,1;0.999,0.999;0.999,0.999;0.998,0.998;0.998,0.998;0.997,0.997;0.997,0.997;0.998,0.998;0.998,0.998;0.999,0.999;0.999,0.999;1,1;1,1" calcMode="discrete"/><path fill="#FFF" d="M0,-108L0,-162Q-67.1,-162 -114.6,-114.6 -162,-67.1 -162,0 -162,67.15 -114.6,114.55 -67.1,162 0,162L0,108Q-44.75,108 -76.4,76.35 -108,44.75 -108,0 -108,-44.75 -76.4,-76.4 -44.75,-108 0,-108" fill-opacity="1"/></g><animate attributeName="display" begin="indefinite" repeatCount="1" dur="2.28s" keyTimes="0;0.202;1" values="none;inline;none"/></mask><g mask="url(#Scene_1_6_66)" id="Scene 1_7.66"><path fill="#FD3D39" d="M265.5,144.1Q265.45,146 265.3,147.95 262.7,194.85 228.8,228.8 192,265.55 140,265.55 87.95,265.55 51.15,228.8 14.4,192 14.4,140L5.1,140Q5.1,195.85 44.6,235.35 84.1,274.85 140,274.85 195.85,274.85 235.35,235.35 271.8,198.9 274.6,148.55 274.75,146.45 274.8,144.4 274.85,142.2 274.85,140L265.55,140Q265.55,142.05 265.5,144.1"/><animate attributeName="display" begin="indefinite" repeatCount="1" dur="2.28s" keyTimes="0;0.579;1" values="none;inline;none"/></g><mask id="Scene_1_6_66" opacity="9999999999999.99"><g id="mask-2" transform="matrix(-0.861 0.505 -0.505 -0.861 140 140)"><animateTransform attributeName="transform" additive="replace" type="translate" begin="indefinite" dur="2.28s" keyTimes="0;0.579;0.596;0.605;0.614;0.623;0.64;0.649;0.658;0.667;0.693;0.702;0.711;0.719;0.728;0.737;0.746;0.754;0.763;1" values="140,140;140,140;140,140;140.05,139.95;140.05,140.05;140,140;140,140;140.1,140;140.05,140.05;140,140;140,140;140.05,139.95;140,140;140,140;139.95,140.05;140.05,139.95;140,140;139.95,139.95;140,140;140,140" calcMode="discrete"/><animateTransform attributeName="transform" additive="sum" type="rotate" begin="indefinite" dur="2.28s" keyTimes="0;0.579;0.588;0.596;0.605;0.614;0.623;0.632;0.64;0.649;0.658;0.667;0.675;0.684;0.693;0.702;0.711;0.719;0.728;0.737;0.746;0.754;0.763;0.772;0.781;1" values="-90,0,0;-90,0,0;-95.061,0,0;-100.311,0,0;-105.564,0,0;-110.822,0,0;-116.08,0,0;-121.341,0,0;-126.604,0,0;-131.867,0,0;-137.131,0,0;-142.394,0,0;-147.656,0,0;-152.918,0,0;-158.176,0,0;-163.433,0,0;-168.688,0,0;-173.94,0,0;-179.188,0,0;-184.06,0,0;-189.31,0,0;-194.563,0,0;-199.819,0,0;-205.078,0,0;-210.413,0,0;-210.413,0,0" calcMode="discrete"/><animateTransform attributeName="transform" additive="sum" type="scale" begin="indefinite" dur="2.28s" keyTimes="0;0.579;0.588;0.596;0.605;0.614;0.623;0.632;0.64;0.684;0.693;0.702;0.711;0.719;0.728;0.737;0.746;0.754;0.763;0.772;0.781;1" values="1,1;1,1;0.999,0.999;0.999,0.999;0.998,0.998;0.998,0.998;0.997,0.997;0.997,0.997;0.996,0.996;0.996,0.996;0.997,0.997;0.997,0.997;0.998,0.998;0.998,0.998;0.999,0.999;0.998,0.998;0.998,0.998;0.997,0.997;0.996,0.996;0.996,0.996;0.997,0.997;0.997,0.997" calcMode="discrete"/><path fill="#FFF" d="M0,-162L0,-108Q44.75,-108 76.35,-76.4 108,-44.75 108,0 108,44.75 76.35,76.35 44.75,108 0,108L0,162Q67.15,162 114.55,114.55 162,67.15 162,0 162,-67.1 114.55,-114.6 67.15,-162 0,-162" fill-opacity="1"/></g><animate attributeName="display" begin="indefinite" repeatCount="1" dur="2.28s" keyTimes="0;0.579;1" values="none;inline;none"/></mask><g><g id="red_dot_copy" transform="matrix(0 1 -1 0 270.3 140)"><path fill="#FD3D39" d="M3.2,-3.15Q1.9,-4.55 0,-4.55 -1.8,-4.55 -3.2,-3.15 -4.55,-1.8 -4.55,0 -4.55,1.9 -3.2,3.2 -1.8,4.55 0,4.55 1.9,4.55 3.2,3.2 4.55,1.9 4.55,0 4.55,-1.8 3.2,-3.15"/></g><animate attributeName="display" begin="indefinite" repeatCount="1" dur="2.28s" keyTimes="0;0.202;1" values="none;inline;none"/></g><g style="display:none;"><use xlink:href="#red_dot" width="110" height="110" x="-55" y="-55" overflow="visible" transform="matrix(0 0.833 -0.833 0 270.3 140)" opacity="0"><animateTransform attributeName="transform" additive="replace" type="translate" begin="indefinite" dur="2.28s" keyTimes="0;0.175;0.193;1" values="270.3,140;270.3,140;270.3,140;270.3,140" calcMode="discrete"/><animateTransform attributeName="transform" additive="sum" type="rotate" begin="indefinite" dur="2.28s" keyTimes="0;0.175;0.193;1" values="90,0,0;90,0,0;90,0,0;90,0,0" calcMode="discrete"/><animateTransform attributeName="transform" additive="sum" type="scale" begin="indefinite" dur="2.28s" keyTimes="0;0.175;0.184;0.193;1" values="0.5,0.5;0.5,0.5;0.667,0.667;0.833,0.833;0.833,0.833" calcMode="discrete"/><animate attributeName="opacity" begin="indefinite" dur="2.28s" keyTimes="0;0.175;0.184;0.193;1" values="0;0;0.33;0.67;0.67" calcMode="discrete"/></use><animate attributeName="display" begin="indefinite" repeatCount="1" dur="2.28s" keyTimes="0;0.175;0.202;1" values="none;inline;none;none"/></g><g style="display:none;"><use xlink:href="#red_dot" width="110" height="110" x="-55" y="-55" overflow="visible" transform="matrix(0 1 -1 0 9.7 140)"><animateTransform attributeName="transform" additive="replace" type="translate" begin="indefinite" dur="2.28s" keyTimes="0;0.202;0.211;0.219;0.228;0.237;0.246;0.254;0.263;0.272;0.281;0.289;0.298;0.307;0.316;0.325;0.333;0.342;0.351;0.36;0.368;0.377;0.386;0.395;0.404;0.412;0.421;0.43;0.439;0.447;0.456;0.465;0.474;0.482;0.491;0.5;0.509;0.518;0.526;0.535;0.544;0.553;0.561;0.57;0.579;0.5877192982456141;1" values="270.3,140;270.3,140;270,130.55;269.05,121.1;267.45,111.75;265.15,102.5;262.15,93.45;258.4,84.65;254,76.2;248.9,68.05;243.25,60.35;237.05,53.05;230.45,46.2;223.45,39.85;216,33.95;208.15,28.6;199.9,23.85;191.25,19.75;182.3,16.35;173.15,13.65;163.8,11.7;154.3,10.4;144.75,9.8;135.25,9.75;125.8,10.4;116.4,11.65;107.1,13.6;97.95,16.25;89,19.65;80.35,23.7;72.05,28.45;64.15,33.85;56.6,39.75;49.55,46.2;42.95,53;36.8,60.2;31.2,67.85;26.15,75.9;21.7,84.35;17.95,93.15;14.9,102.25;12.6,111.5;10.95,120.95;10,130.45;9.7,140;9.7,140;9.7,140" calcMode="discrete"/><animateTransform attributeName="transform" additive="sum" type="rotate" begin="indefinite" dur="2.28s" keyTimes="0;0.202;0.5877192982456141;1" values="90,0,0;90,0,0;90,0,0;90,0,0" calcMode="discrete"/></use><animate attributeName="display" begin="indefinite" repeatCount="1" dur="2.28s" keyTimes="0;0.202;0.588;1" values="none;inline;none;none"/></g><g><use xlink:href="#red_dot" width="110" height="110" x="-55" y="-55" overflow="visible" transform="matrix(0 1 -1 0 206.3 252.45)"><animateTransform attributeName="transform" additive="replace" type="translate" begin="indefinite" dur="2.28s" keyTimes="0;0.579;0.588;0.596;0.605;0.614;0.623;0.632;0.64;0.649;0.658;0.667;0.675;0.684;0.693;0.702;0.711;0.719;0.728;0.737;0.746;0.754;0.763;0.772;0.781;1" values="9.7,140;9.7,140;10.15,151.85;11.65,163.6;14.2,175.25;17.9,186.6;22.7,197.6;28.55,208.05;35.4,217.9;43.05,227.05;51.4,235.55;60.4,243.3;70.05,250.2;80.35,256.25;91.25,261.25;102.55,265.15;114.2,267.9;126.05,269.6;138,270.25;149.9,269.9;161.7,268.6;173.35,266.25;184.75,262.75;195.8,258.15;206.3,252.45;206.3,252.45" calcMode="discrete"/><animateTransform attributeName="transform" additive="sum" type="rotate" begin="indefinite" dur="2.28s" keyTimes="0;0.579;1" values="90,0,0;90,0,0;90,0,0" calcMode="discrete"/></use><animate attributeName="display" begin="indefinite" repeatCount="1" dur="2.28s" keyTimes="0;0.579;1" values="none;inline;none"/></g><defs><symbol id="red_dot" viewBox="-54.55 -54.55 109.1 109.1"><path fill="#FD3D39" d="M3.2,-3.15Q1.9,-4.55 0,-4.55 -1.8,-4.55 -3.2,-3.15 -4.55,-1.8 -4.55,0 -4.55,1.9 -3.2,3.2 -1.8,4.55 0,4.55 1.9,4.55 3.2,3.2 4.55,1.9 4.55,0 4.55,-1.8 3.2,-3.15"/>
</symbol><symbol id="grey-circle" viewBox="-184.85 -184.85 369.75 369.75"><path fill="#DCDCDC" d="M8.6,-134.6Q6.5,-134.75 4.45,-134.8 2.25,-134.85 0.05,-134.85L0,-134.85 0,-125.55 0.05,-125.55Q2.1,-125.55 4.15,-125.5 6.05,-125.45 8,-125.3 54.9,-122.7 88.85,-88.8 125.6,-52 125.6,0 125.6,52.05 88.85,88.85 52.05,125.6 0.05,125.6L0,125.6 0,134.9 0.05,134.9Q55.9,134.9 95.4,95.4 134.9,55.9 134.9,0 134.9,-55.85 95.4,-95.35 58.95,-131.8 8.6,-134.6"/><path fill="#DCDCDC" d="M0,-125.55L0,-134.85Q-55.867,-134.833 -95.35,-95.35 -134.85,-55.85 -134.85,0 -134.85,55.9 -95.35,95.4 -55.867,134.883 0,134.9L0,125.6Q-52.017,125.583 -88.75,88.85 -125.55,52.05 -125.55,0 -125.55,-52 -88.75,-88.8 -52.017,-125.533 0,-125.55"/>
</symbol></defs></svg>