<?xml version="1.0" encoding="utf-8"?><svg xmlns:xlink="http://www.w3.org/1999/xlink" id="Scene_1" image-rendering="auto" baseProfile="basic" version="1.1" x="0px" y="0px" width="93" height="73" viewBox="0 0 93 73" xmlns="http://www.w3.org/2000/svg"><g id="Scene 1_1.0"><path fill="#FD3D39" d="M41.7,46.1Q42.433,46.839 43.35,46.1 43.225,42.225 40.45,39.45 37.6,36.55 33.5,36.55 29.4,36.55 26.55,39.45 23.775,42.225 23.65,46.1 24.5,46.759 25.35,46.1 25.474,42.926 27.75,40.65 30.1,38.25 33.5,38.25 36.9,38.25 39.3,40.65 41.576,42.926 41.7,46.1"/><path fill="#FD3D39" d="M42.2,17.5Q41.35,16.653 40.5,17.5L40.5,28.9Q37.3,27.65 33.6,27.65 29.8,27.65 26.55,29L26.55,17.5Q25.797,16.821 24.85,17.5L24.85,29.8Q23,30.75 21.35,32.2L13.1,25.3 13.1,17.5Q11.89,16.63 10.1,17.5L10.1,26Q10.1,26.75 10.6,27.2L19.2,34.4Q14.96,39.371 14.85,46.1 16.375,47.059 17.9,46.1 18.024,39.824 22.5,35.3 27.1,30.7 33.6,30.7 40.1,30.7 44.7,35.3 49.176,39.824 49.3,46.1 50.825,46.867 52.35,46.1 52.238,39.321 47.9,34.3L56.4,27.2Q56.95,26.75 56.95,26L56.95,17.5Q55.521,16.349 53.9,17.5L53.9,25.3 45.75,32.15Q44.05,30.65 42.2,29.7L42.2,17.5"/></g><g id="Scene 1_0.0"><path fill="#FD3D39" d="M56.5,7.65Q56.05,7.2 55.45,7.2L11.6,7.2Q10.95,7.2 10.55,7.65 10.1,8.1 10.1,8.75L10.1,17.5Q11.6,18.648 13.1,17.5L13.1,10.3 24.85,10.3 24.85,17.5Q25.7,18.277 26.55,17.5L26.55,10.3 40.5,10.3 40.5,17.5Q41.253,18.179 42.2,17.5L42.2,10.3 53.9,10.3 53.9,17.5Q55.337,18.552 56.95,17.5L56.95,8.75Q56.95,8.1 56.5,7.65"/><path fill="#FD3D39" d="M43.35,46.1Q42.716,45.432 41.7,46.1 41.7,46.274 41.7,46.45 41.7,49.85 39.3,52.25 36.9,54.65 33.5,54.65 30.15,54.65 27.75,52.25 25.35,49.85 25.35,46.45 25.35,46.274 25.35,46.1 24.597,45.129 23.65,46.1 23.65,46.274 23.65,46.45 23.65,50.55 26.55,53.4 29.4,56.3 33.5,56.3 37.6,56.3 40.45,53.4 43.35,50.55 43.35,46.45 43.35,46.274 43.35,46.1"/><path fill="#FD3D39" d="M52.35,46.1Q50.825,45.141 49.3,46.1 49.3,46.274 49.3,46.45 49.3,52.95 44.7,57.55 40.1,62.15 33.6,62.15 27.1,62.15 22.5,57.55 17.9,52.95 17.9,46.45 17.9,46.274 17.9,46.1 16.375,45.009 14.85,46.1 14.85,46.274 14.85,46.45 14.85,54.2 20.35,59.7 25.85,65.2 33.6,65.2 41.35,65.2 46.85,59.7 52.35,54.2 52.35,46.45 52.35,46.274 52.35,46.1"/></g><defs/></svg>