<?xml version="1.0" encoding="utf-8"?><svg xmlns:xlink="http://www.w3.org/1999/xlink" id="Scene_1" image-rendering="auto" baseProfile="basic" version="1.1" x="0px" y="0px" width="93" height="73" viewBox="0 0 93 73" xmlns="http://www.w3.org/2000/svg"><g id="Scene 1_0.0"><path fill="#FD3D39" d="M54.75,22.1Q50.7,12.15 40.8,7.95 40.35,7.8 39.9,7.95 39.45,8.1 39.25,8.55L37.95,11.55Q31.6,9.2 25.3,10.8 19.45,12.3 15.15,16.8 10.9,21.25 9.6,27.2 8.2,33.5 10.65,39.7 13.65,47.35 21.2,51.1L19.9,54.05Q19.7,54.5 19.9,54.95 20.05,55.4 20.5,55.6 25,57.45 29.4,57.65L29.4,62.5 24.15,62.5Q23,62.5 23,63.7 23,64.85 24.15,64.85L36.9,64.85Q38.05,64.85 38.05,63.7 38.05,62.5 36.9,62.5L31.65,62.5 31.65,57.65Q39.15,57.25 45.3,53.15 51.6,48.9 54.6,41.95 58.75,32.05 54.75,22.1 M52.9,23.6Q56.2,32.4 52.55,41.1 48.7,49.65 40.05,53.4 31.35,57.1 22.65,53.85L23.45,52.05Q31.6,54.95 39.45,51.5 47.2,48.1 50.55,40.4 54.05,32.5 51,24.35 48.05,16.25 40.35,12.5L41.15,10.7Q49.6,14.8 52.9,23.6 M42.45,16.65Q45.75,19.1 47.65,22.8 49.6,26.4 49.85,30.55L41.9,27.1Q42.65,23.55 42.85,20.9 42.85,18.55 42.45,16.65 M49.85,33.05Q49.35,40.05 44.75,44.9L36.15,41.1Q37.2,39.4 38.8,35.9 40.75,31.7 41.3,29.25L49.85,33.05 M40.2,17.55Q40.8,21 39.75,26.05L28.95,21.25Q31.35,17.85 33.65,15.85 36,13.9 37.6,13.9 37.7,13.95 38.45,14.15 39.7,14.7 40.2,17.55 M33.8,12.85Q30.4,14.85 26.55,20.3L18.6,16.9Q22.85,13.25 28.35,12.65 30.7,12.4 33.8,12.85 M11.6,33.05L19.55,36.5Q18.1,42.95 18.95,46.95 12,41.15 11.6,33.05 M11.6,30.55Q12,24 16.7,18.65L25.25,22.45Q24.15,24.25 22.8,27.2 21.1,31 20.15,34.35L11.6,30.55 M32.6,42.3Q29.9,46.25 27.25,48.25 24.6,50.15 23.1,49.45 21.45,48.75 21.1,45.5 20.75,42.25 21.8,37.55L32.6,42.3 M22.4,35.15Q23.45,30.75 27.5,23.3L39,28.3Q38.4,30.45 37.05,33.8 35.3,38.1 33.9,40.15L22.4,35.15 M27.6,50.75Q31.25,48.55 34.85,43.25L42.85,46.7Q39.75,49.25 35.7,50.3 31.75,51.35 27.6,50.75"/></g><defs/></svg>