<?xml version="1.0" encoding="utf-8"?><svg xmlns:xlink="http://www.w3.org/1999/xlink" id="Scene_1" image-rendering="auto" baseProfile="basic" version="1.1" x="0px" y="0px" width="93" height="73" viewBox="0 0 93 73" xmlns="http://www.w3.org/2000/svg"><g id="Scene 1_0.0"><path fill="#FD3D39" d="M55.85,20.1L60.65,15.25Q61.05,14.85 61.05,14.25 61.05,13.65 60.65,13.25 60.25,12.85 59.65,12.85 59,12.85 58.6,13.25L53.8,18.05Q53.4,18.45 53.4,19.05 53.4,19.65 53.8,20.1 54.2,20.5 54.8,20.5 55.4,20.5 55.85,20.1"/><path fill="#FD3D39" d="M40.65,13.25L40.65,6.45Q40.65,5.85 40.25,5.45 39.8,5 39.2,5 38.6,5 38.2,5.45 37.8,5.85 37.8,6.45L37.8,13.25Q37.8,13.85 38.2,14.3 38.6,14.7 39.2,14.7 39.8,14.7 40.25,14.3 40.65,13.85 40.65,13.25"/><path fill="#FD3D39" d="M59.7,35.7Q60.1,36.1 60.7,36.1L67.5,36.1Q68.1,36.1 68.55,35.7 68.95,35.25 68.95,34.65 68.95,34.05 68.55,33.65 68.1,33.2 67.5,33.2L60.7,33.2Q60.1,33.2 59.7,33.65 59.3,34.05 59.3,34.65 59.3,35.25 59.7,35.7"/><path fill="#FD3D39" d="M43.8,36.5Q43.8,34.65 42.5,33.35 41.2,32.05 39.35,32.05 37.5,32.05 36.15,33.35 34.85,34.65 34.85,36.5 34.85,38.35 36.15,39.65 37,40.5 38,40.8L38,50.85 31.35,50.85Q30.8,50.85 30.4,51.25 30,51.65 30,52.2 30,52.75 30.4,53.15 30.8,53.55 31.35,53.55L47.3,53.55Q47.85,53.55 48.25,53.15 48.65,52.75 48.65,52.2 48.65,51.65 48.25,51.25 47.85,50.85 47.3,50.85L40.7,50.85 40.7,40.8Q41.7,40.5 42.5,39.65 43.8,38.35 43.8,36.5"/><path fill="#FD3D39" d="M43.7,48.6Q44.3,49.85 46.1,49.05 50.5,47.1 53.15,43.05 55.9,38.9 55.9,33.95 55.9,27.1 51.05,22.2 46.2,17.35 39.35,17.35 32.5,17.35 27.6,22.2 22.75,27.1 22.75,33.95 22.75,38.95 25.5,43.1 28.2,47.1 32.6,49.1 34.1,49.8 34.85,48.65 35.6,47.5 34.2,46.8 30.3,45.25 27.9,41.8 25.45,38.25 25.45,33.95 25.45,28.2 29.5,24.15 33.6,20.05 39.35,20.05 45.1,20.05 49.15,24.15 53.2,28.2 53.2,33.95 53.2,38.25 50.75,41.8 48.4,45.25 44.55,46.8 43.1,47.4 43.7,48.6"/><path fill="#FD3D39" d="M25.35,18.05L20.55,13.25Q20.1,12.85 19.5,12.85 18.9,12.85 18.5,13.25 18.1,13.65 18.1,14.25 18.1,14.85 18.5,15.25L23.3,20.1Q23.7,20.5 24.35,20.5 24.95,20.5 25.35,20.1 25.75,19.65 25.75,19.05 25.75,18.45 25.35,18.05"/><path fill="#FD3D39" d="M11.6,33.2Q11,33.2 10.6,33.65 10.2,34.05 10.2,34.65 10.2,35.25 10.6,35.7 11,36.1 11.6,36.1L18.4,36.1Q19,36.1 19.45,35.7 19.85,35.25 19.85,34.65 19.85,34.05 19.45,33.65 19,33.2 18.4,33.2L11.6,33.2"/><path fill="#FD3D39" d="M31.75,58.8Q32.15,59.2 32.7,59.2L45.95,59.2Q46.5,59.2 46.9,58.8 47.3,58.4 47.3,57.85 47.3,57.3 46.9,56.9 46.5,56.5 45.95,56.5L32.7,56.5Q32.15,56.5 31.75,56.9 31.35,57.3 31.35,57.85 31.35,58.4 31.75,58.8"/><path fill="#FD3D39" d="M32.5,64.65Q32.9,65 33.45,65L45.2,65Q45.75,65 46.15,64.65 46.55,64.25 46.55,63.65 46.55,63.1 46.15,62.75 45.75,62.35 45.2,62.35L33.45,62.35Q32.9,62.35 32.5,62.75 32.1,63.1 32.1,63.65 32.1,64.25 32.5,64.65"/></g><defs/></svg>